<svg width="33" height="33" viewBox="0 0 33 33" fill="none" xmlns="http://www.w3.org/2000/svg">
<path d="M16.2358 0.0533447C13.0352 0.0533447 9.90646 1.00244 7.24525 2.7806C4.58404 4.55877 2.50988 7.08614 1.28506 10.0431C0.0602343 13.0001 -0.260235 16.2539 0.364174 19.393C0.988582 22.5321 2.52982 25.4156 4.793 27.6787C7.05617 29.9419 9.93964 31.4832 13.0787 32.1076C16.2179 32.732 19.4716 32.4115 22.4286 31.1867C25.3856 29.9619 27.913 27.8877 29.6911 25.2265C31.4693 22.5653 32.4184 19.4365 32.4184 16.2359C32.4184 11.944 30.7135 7.82794 27.6786 4.79311C24.6438 1.75829 20.5277 0.0533447 16.2358 0.0533447ZM16.2358 5.83284C16.5787 5.83284 16.914 5.93453 17.1991 6.12505C17.4842 6.31556 17.7064 6.58635 17.8377 6.90317C17.9689 7.21999 18.0032 7.56861 17.9363 7.90495C17.8694 8.24128 17.7043 8.55022 17.4618 8.7927C17.2193 9.03519 16.9104 9.20032 16.5741 9.26722C16.2377 9.33412 15.8891 9.29979 15.5723 9.16856C15.2555 9.03732 14.9847 8.81509 14.7942 8.52996C14.6037 8.24483 14.502 7.90961 14.502 7.56669C14.502 7.10684 14.6846 6.66583 15.0098 6.34067C15.335 6.01551 15.776 5.83284 16.2358 5.83284ZM20.8594 25.6276H11.6122V23.0268H14.9354V15.2245H12.7681V12.6237H17.5362V23.0268H20.8594V25.6276Z" fill="url(#paint0_linear)"/>
<defs>
<linearGradient id="paint0_linear" x1="14.8554" y1="-6.36832" x2="37.1034" y2="4.24154" gradientUnits="userSpaceOnUse">
<stop stop-color="#F69F26"/>
<stop offset="1" stop-color="#FB5A00"/>
</linearGradient>
</defs>
</svg>
